<svg xmlns="http://www.w3.org/2000/svg" width="1200" height="630" viewBox="0 0 1200 630" fill="none">
  <defs>
    <linearGradient id="bg" x1="0" y1="0" x2="1200" y2="630" gradientUnits="userSpaceOnUse">
      <stop offset="0" stop-color="#072f36"/>
      <stop offset="0.55" stop-color="#0c5460"/>
      <stop offset="1" stop-color="#1f3b63"/>
    </linearGradient>
    <linearGradient id="glass" x1="0" y1="0" x2="1" y2="1">
      <stop offset="0" stop-color="#ffffff" stop-opacity="0.24"/>
      <stop offset="1" stop-color="#ffffff" stop-opacity="0.08"/>
    </linearGradient>
  </defs>
  <rect width="1200" height="630" fill="url(#bg)"/>
  <rect x="70" y="70" width="1060" height="490" rx="26" fill="url(#glass)" stroke="#8be9ff" stroke-opacity="0.25"/>

  <rect x="110" y="140" width="560" height="340" rx="18" fill="#082f34" fill-opacity="0.75" stroke="#67e8f9" stroke-opacity="0.3"/>
  <text x="140" y="195" fill="#d9fbff" font-family="Segoe UI, Arial, sans-serif" font-size="36" font-weight="700">Devlog 2026-03-11</text>
  <text x="140" y="240" fill="#a5f3fc" font-family="Segoe UI, Arial, sans-serif" font-size="24">Blog Feature + Knowledge Trail</text>
  <rect x="140" y="280" width="230" height="32" rx="8" fill="#14b8a6" fill-opacity="0.28"/>
  <text x="154" y="302" fill="#ccfbf1" font-family="Segoe UI, Arial, sans-serif" font-size="16">Task: Add Blog Module</text>
  <rect x="140" y="324" width="280" height="32" rx="8" fill="#22d3ee" fill-opacity="0.26"/>
  <text x="154" y="346" fill="#ecfeff" font-family="Segoe UI, Arial, sans-serif" font-size="16">Task: Wire Nav + Sidebar</text>
  <rect x="140" y="368" width="300" height="32" rx="8" fill="#7dd3fc" fill-opacity="0.24"/>
  <text x="154" y="390" fill="#f0f9ff" font-family="Segoe UI, Arial, sans-serif" font-size="16">Task: Define Backfill Rules</text>

  <rect x="760" y="180" width="56" height="250" fill="#0f172a" fill-opacity="0.45"/>
  <rect x="830" y="140" width="74" height="290" fill="#111827" fill-opacity="0.52"/>
  <rect x="920" y="210" width="62" height="220" fill="#0f172a" fill-opacity="0.42"/>
  <rect x="995" y="160" width="88" height="270" fill="#111827" fill-opacity="0.5"/>
  <circle cx="1040" cy="120" r="42" fill="#22d3ee" fill-opacity="0.22"/>
  <circle cx="1040" cy="120" r="20" fill="#a5f3fc" fill-opacity="0.42"/>
</svg>
