<svg width="520" height="180" viewBox="0 0 520 180" fill="none" xmlns="http://www.w3.org/2000/svg">
  <rect x="20" y="60" width="120" height="60" rx="16" fill="#0d9488"/>
  <text x="80" y="95" text-anchor="middle" fill="#fff" font-size="22" font-family="Segoe UI,Arial,sans-serif" font-weight="bold">SoDialog</text>

  <rect x="220" y="10" width="90" height="40" rx="10" fill="#fbbf24"/>
  <text x="265" y="36" text-anchor="middle" fill="#333" font-size="15" font-family="Segoe UI,Arial,sans-serif">Modal</text>

  <rect x="220" y="60" width="90" height="40" rx="10" fill="#38bdf8"/>
  <text x="265" y="86" text-anchor="middle" fill="#fff" font-size="15" font-family="Segoe UI,Arial,sans-serif">Offcanvas</text>

  <rect x="220" y="110" width="90" height="40" rx="10" fill="#f472b6"/>
  <text x="265" y="136" text-anchor="middle" fill="#fff" font-size="15" font-family="Segoe UI,Arial,sans-serif">Toast</text>

  <rect x="220" y="160" width="90" height="40" rx="10" fill="#a3e635"/>
  <text x="265" y="186" text-anchor="middle" fill="#333" font-size="15" font-family="Segoe UI,Arial,sans-serif">Context Menu</text>

  <path d="M140 90C170 90 220 30 220 30" stroke="#0d9488" stroke-width="2" marker-end="url(#arrow)"/>
  <path d="M140 90C170 90 220 80 220 80" stroke="#0d9488" stroke-width="2" marker-end="url(#arrow)"/>
  <path d="M140 90C170 90 220 130 220 130" stroke="#0d9488" stroke-width="2" marker-end="url(#arrow)"/>
  <path d="M140 90C170 90 220 180 220 180" stroke="#0d9488" stroke-width="2" marker-end="url(#arrow)"/>

  <defs>
    <marker id="arrow" markerWidth="8" markerHeight="8" refX="6" refY="4" orient="auto" markerUnits="strokeWidth">
      <path d="M0,0 L8,4 L0,8 L2,4 Z" fill="#0d9488" />
    </marker>
  </defs>
</svg>
